<svg id="Layer_1" data-name="Layer 1" xmlns="http://www.w3.org/2000/svg" xmlns:xlink="http://www.w3.org/1999/xlink" viewBox="0 0 222.57 210"><defs><style>.cls-1,.cls-3{fill:none;}.cls-2{clip-path:url(#clip-path);}.cls-3{stroke:#ffc719;stroke-miterlimit:10;stroke-width:7px;}</style><clipPath id="clip-path"><rect class="cls-1" width="222.57" height="212.37"/></clipPath></defs><title>corner-img</title><g class="cls-2"><path class="cls-3" d="M45.24,248.49c11.68-11.68,15.93-7.44,27.61-19.13S80.3,213.44,92,201.75s15.93-7.44,27.61-19.13S127,166.69,138.73,155s15.93-7.45,27.62-19.13,7.44-15.93,19.13-27.62,15.93-7.45,27.62-19.13,7.45-15.93,19.14-27.62,15.93-7.45,27.62-19.14"/><path class="cls-3" d="M27.49,230.74c11.68-11.68,15.93-7.44,27.61-19.13S62.55,195.69,74.23,184s15.93-7.44,27.61-19.13,7.44-15.93,19.13-27.62,15.93-7.45,27.62-19.13S156,102.19,167.73,90.5s15.93-7.45,27.62-19.13,7.45-15.93,19.14-27.62,15.93-7.45,27.62-19.14"/><path class="cls-3" d="M9.74,213c11.68-11.68,15.93-7.44,27.61-19.13s7.44-15.93,19.13-27.61,15.93-7.44,27.61-19.13,7.44-15.93,19.13-27.62,15.93-7.45,27.62-19.13S138.29,84.44,150,72.75s15.93-7.45,27.62-19.13S185,37.69,196.74,26s15.93-7.45,27.62-19.14"/></g></svg>